<svg width="230" height="32" viewBox="0 0 230 32" fill="none" xmlns="http://www.w3.org/2000/svg">
<path d="M165.398 9.43815H159.583C159.553 9.14657 159.537 8.93171 159.537 8.79359C159.399 7.02874 159.009 5.92378 158.365 5.47873C157.721 5.01833 156.205 4.78814 153.814 4.78814C150.995 4.78814 149.148 5.04903 148.275 5.57081C147.417 6.0926 146.988 7.18988 146.988 8.86265C146.988 10.8424 147.34 12.0317 148.045 12.4307C148.75 12.8297 151.079 13.1367 155.032 13.3515C159.706 13.6124 162.724 14.28 164.088 15.3543C165.467 16.4285 166.157 18.6615 166.157 22.053C166.157 26.2273 165.352 28.9283 163.743 30.156C162.134 31.3684 158.587 31.9746 153.102 31.9746C148.168 31.9746 144.889 31.3761 143.264 30.1791C141.656 28.982 140.851 26.5573 140.851 22.9048L140.828 21.7538H146.62L146.643 22.4214C146.643 24.6159 147.026 25.9588 147.792 26.4498C148.558 26.9409 150.65 27.1865 154.067 27.1865C156.733 27.1865 158.434 26.9026 159.169 26.3347C159.905 25.7669 160.273 24.4548 160.273 22.3983C160.273 20.879 159.989 19.8738 159.422 19.3827C158.871 18.8763 157.668 18.5694 155.814 18.4619L152.527 18.2548C147.562 17.9632 144.391 17.2726 143.012 16.183C141.633 15.0934 140.943 12.753 140.943 9.16191C140.943 5.49408 141.77 3.05397 143.425 1.84159C145.096 0.613864 148.421 0 153.4 0C158.12 0 161.299 0.560151 162.939 1.68045C164.578 2.80075 165.398 4.98764 165.398 8.24112V9.43815Z" fill="#2B59FF"/>
<path d="M183.326 0C189.026 0 192.696 0.951488 194.335 2.85447C195.975 4.7421 196.795 8.97775 196.795 15.5614C196.795 22.759 195.967 27.2939 194.312 29.1662C192.673 31.0385 188.689 31.9746 182.36 31.9746C176.66 31.9746 172.975 31.0538 171.305 29.2122C169.635 27.3553 168.8 23.2808 168.8 16.9887C168.8 9.49954 169.62 4.79581 171.259 2.87749C172.899 0.959162 176.921 0 183.326 0ZM182.866 5.11041C178.867 5.11041 176.53 5.62452 175.856 6.65275C175.182 7.68097 174.845 11.2414 174.845 17.334C174.845 21.8459 175.235 24.5622 176.017 25.483C176.814 26.4038 179.143 26.8642 183.004 26.8642C186.697 26.8642 188.911 26.3501 189.646 25.3219C190.382 24.2783 190.75 21.1322 190.75 15.8837C190.75 10.6198 190.397 7.51215 189.692 6.56067C189.003 5.59383 186.727 5.11041 182.866 5.11041Z" fill="#2B59FF"/>
<path d="M229.938 0.276239V31.6984H219.848L210.884 14.4565C210.439 13.5971 209.742 12.0931 208.792 9.94459L207.781 7.68864L206.793 5.43269H206.563L206.655 7.50448L206.724 9.55325L206.77 13.6738V31.6984H200.817V0.276239H210.907L219.066 16.206C219.786 17.6179 220.621 19.329 221.571 21.3394L222.767 23.8946L223.962 26.4729H224.169L224.031 22.4214L223.985 18.3699V0.276239H229.938Z" fill="#2B59FF"/>
<path d="M15.3084 5.43883V32H9.23663V5.43883H0V0H24.8733V5.43883H15.3084Z" fill="#2B59FF"/>
<path d="M55.115 0V32H49.0432V18.1685H34.0396V32H27.9678V0H34.0396V13.0579H49.0432V0H55.115Z" fill="#2B59FF"/>
<path d="M66.1802 5.11062V13.3626H81.1839V17.8403H66.1802V26.8894H82.1451V32H60.1084V0H86.6696V5.11062H66.1802Z" fill="#2B59FF"/>
<path d="M124.085 0V32H118.013V14.5582C118.013 13.1673 118.052 11.5888 118.13 9.82271L118.365 5.06374H118.177L117.451 7.29084L116.747 9.51795C116.091 11.5184 115.583 12.9954 115.223 13.9487L108.19 32H102.658L95.5546 14.0894C95.1639 13.1048 94.6481 11.6278 94.0073 9.65861L93.2806 7.4315L92.5538 5.22784H92.3663L92.6007 9.89304C92.6945 11.706 92.7414 13.2611 92.7414 14.5582V32H86.6696V0H96.5626L102.283 14.8161C102.674 15.8476 103.189 17.3245 103.83 19.2469L104.533 21.474L105.26 23.6777H105.471L106.151 21.474L106.854 19.2703C107.432 17.4105 107.933 15.9414 108.355 14.863L113.981 0H124.085Z" fill="#2B59FF"/>
<path d="M135.783 0V32H129.711V0H135.783Z" fill="#2B59FF"/>
</svg>
